<?xml version="1.0" standalone="no"?><svg xmlns="http://www.w3.org/2000/svg" viewBox="0 0 1440 320"><path fill="#ff5500" fill-opacity="0.6" d="M0,64L16,106.7C32,149,64,235,96,240C128,245,160,171,192,160C224,149,256,203,288,197.3C320,192,352,128,384,133.3C416,139,448,213,480,218.7C512,224,544,160,576,144C608,128,640,160,672,149.3C704,139,736,85,768,85.3C800,85,832,139,864,144C896,149,928,107,960,96C992,85,1024,107,1056,144C1088,181,1120,235,1152,250.7C1184,267,1216,245,1248,224C1280,203,1312,181,1344,181.3C1376,181,1408,203,1424,213.3L1440,224L1440,320L1424,320C1408,320,1376,320,1344,320C1312,320,1280,320,1248,320C1216,320,1184,320,1152,320C1120,320,1088,320,1056,320C1024,320,992,320,960,320C928,320,896,320,864,320C832,320,800,320,768,320C736,320,704,320,672,320C640,320,608,320,576,320C544,320,512,320,480,320C448,320,416,320,384,320C352,320,320,320,288,320C256,320,224,320,192,320C160,320,128,320,96,320C64,320,32,320,16,320L0,320Z"></path></svg>